<svg width="88" height="124" viewBox="0 0 88 124" fill="none" xmlns="http://www.w3.org/2000/svg">
<path fill-rule="evenodd" clip-rule="evenodd" d="M87.9283 111.89C87.9283 118.54 82.5584 123.91 75.9082 123.91H12.9581C6.30795 123.91 0.937988 118.54 0.937988 111.89V33.2019C0.937988 26.5518 6.30791 21.1821 12.9581 21.1821H18.3279C18.8648 17.1339 22.2933 13.9949 26.5063 13.9949H30.224C30.5958 9.90539 32.5784 6.14668 35.759 3.50307C39.3113 0.570478 43.9375 -0.586169 48.5224 0.281337C55.1315 1.56182 60.0469 7.17937 60.7904 13.9949H62.36C66.5731 13.9949 70.0015 17.134 70.5385 21.1821H75.9082C82.5584 21.1821 87.9283 26.5518 87.9283 33.202V111.89ZM9.19916 33.202V111.89C9.19916 113.955 10.8928 115.649 12.9581 115.649H75.9082C77.9735 115.649 79.6672 113.955 79.6672 111.89V33.202C79.6672 31.1367 77.9735 29.4433 75.9082 29.4433H70.5385C70.0015 33.4911 66.573 36.6304 62.36 36.6304H26.5063C22.2933 36.6304 18.8648 33.4912 18.3278 29.4432H12.9581C10.8928 29.4432 9.19916 31.1367 9.19916 33.202ZM44.3922 61.0854C46.277 57.8318 49.8787 54.2105 55.4844 54.2105C62.5984 54.2105 68.0555 59.5896 68.0555 66.7238C68.0555 74.3874 61.3458 79.6291 51.2946 87.4813L51.0093 87.7042C47.1988 90.6787 45.9642 91.6712 45.119 92.3505C44.8612 92.5578 44.6396 92.7359 44.3922 92.9323C44.0672 92.6743 43.8035 92.4624 43.512 92.2282C42.6405 91.5279 41.5213 90.6285 37.7751 87.7042L37.4898 87.4813C27.4386 79.6292 20.7289 74.3874 20.7289 66.7238C20.7289 59.5896 26.186 54.2105 33.3 54.2105C38.9057 54.2105 42.5074 57.8318 44.3922 61.0854Z" fill="url(#paint0_linear_5_202)"/>
<defs>
<linearGradient id="paint0_linear_5_202" x1="62.0323" y1="43.0242" x2="-2.93419" y2="119.607" gradientUnits="userSpaceOnUse">
<stop stop-color="#224A81"/>
<stop offset="1" stop-color="#2797D3"/>
</linearGradient>
</defs>
</svg>
