<svg width="125" height="125" viewBox="0 0 125 125" fill="none" xmlns="http://www.w3.org/2000/svg">
<path d="M121.018 83.2633L99.9706 62.2161L121.018 41.169C123.081 39.1056 124.319 36.2168 124.319 32.9153C124.319 29.6138 123.081 26.7249 121.018 24.6615L99.9706 3.6144C97.9072 1.55095 95.0183 0.312889 91.7168 0.312889C88.828 0.312889 85.9392 1.55095 83.4631 3.6144L62.416 24.6615L41.3688 3.6144C36.8293 -0.925176 29.4009 -0.925176 24.8613 3.6144L3.8142 24.6615C1.75076 27.1376 0.512695 30.0264 0.512695 32.9153C0.512695 35.8041 1.75076 39.1056 3.8142 41.169L24.8613 62.2161L3.8142 83.2633C1.75076 85.3267 0.512695 88.2155 0.512695 91.517C0.512695 94.8185 1.75076 97.7073 3.8142 99.7708L24.8613 120.818C26.9248 122.881 29.8136 124.119 33.1151 124.119C36.0039 124.119 38.8927 122.881 41.3688 120.818L62.416 99.7708L83.4631 120.818C85.5265 122.881 88.828 124.119 91.7168 124.119C94.6057 124.119 97.4945 122.881 99.9706 120.818L121.018 99.7708C125.557 95.2312 125.557 87.8028 121.018 83.2633ZM115.24 93.5805L94.193 114.628C92.9549 115.866 90.8915 115.866 89.6534 114.628L9.59184 35.3914C9.17915 34.566 8.76646 33.7406 8.76646 32.9153C8.76646 32.0899 9.17915 31.2645 9.59184 30.4391L30.639 9.39203C31.877 8.15397 33.9405 8.15397 35.1785 9.39203L114.827 89.0409C116.478 90.279 116.478 92.3424 115.24 93.5805Z" fill="url(#paint0_linear_5_191)"/>
<path d="M58.7055 37.0419C57.0548 35.3911 54.5786 35.3911 52.9279 37.0419L37.2457 52.7241C35.595 54.3748 35.595 56.8509 37.2457 58.5017L65.7212 86.9772C66.5466 87.8026 67.372 88.2153 68.61 88.2153C69.8481 88.2153 70.6735 87.8026 71.4989 86.9772L87.181 71.295C88.0064 70.4697 88.4191 69.6443 88.4191 68.4062C88.4191 67.1682 88.0064 66.3428 87.181 65.5174L58.7055 37.0419Z" fill="url(#paint1_linear_5_191)"/>
<defs>
<linearGradient id="paint0_linear_5_191" x1="87.4216" y1="21.2916" x2="0.51269" y2="110.782" gradientUnits="userSpaceOnUse">
<stop stop-color="#224A81"/>
<stop offset="1" stop-color="#2797D3"/>
</linearGradient>
<linearGradient id="paint1_linear_5_191" x1="87.4216" y1="21.2916" x2="0.51269" y2="110.782" gradientUnits="userSpaceOnUse">
<stop stop-color="#224A81"/>
<stop offset="1" stop-color="#2797D3"/>
</linearGradient>
</defs>
</svg>
