<svg width="114" height="114" viewBox="0 0 114 114" fill="none" xmlns="http://www.w3.org/2000/svg">
<path d="M19.4085 64.7669C20.2479 66.022 22.1213 67.5118 26.2848 67.5118C29.9386 67.5118 31.3371 66.4097 33.274 64.8845C35.4467 63.1727 38.1524 61.0408 43.5171 61.0408C46.6118 61.0408 49.0532 61.6497 50.9694 62.5237V52.0216H19.4083L19.4085 64.7669ZM0 36.3235H114V45.3428H0V36.3235ZM35.1886 101.988C43.8902 101.988 50.9691 94.909 50.9691 86.208V70.9316C50.5056 70.114 48.7043 67.7205 43.5171 67.7205C40.4669 67.7205 39.2501 68.6799 37.408 70.1316C35.1118 71.9407 32.2538 74.1915 26.2848 74.1915C23.4704 74.1915 21.2149 73.6974 19.4085 72.9486V86.2078C19.4085 94.909 26.4874 101.988 35.1884 101.988L35.1886 101.988ZM79.7797 101.988C88.4816 101.988 95.5605 94.909 95.5605 86.208V70.7924C94.9898 69.8802 93.126 67.7291 88.2162 67.7291C85.1783 67.7291 83.9648 68.685 82.1288 70.1316C79.8379 71.9371 76.987 74.1828 71.0309 74.1828C68.1346 74.1828 65.8288 73.66 63.9996 72.8721V86.208C63.9996 94.909 71.0786 101.988 79.7797 101.988ZM19.4085 29.6438H50.9691V17.6638H54.2351V0H16.1426V17.6638H19.4085V29.6438Z" fill="url(#paint0_linear_5_290)"/>
<path d="M109.266 52.0225H102.586V107.32H11.4138V52.0225H4.73412V107.32H0V114H114V107.32H109.266V52.0225ZM63.9999 29.6438H95.5605V17.6638H98.8264V0H60.7339V17.6638H63.9996L63.9999 29.6438Z" fill="url(#paint1_linear_5_290)"/>
<path d="M64 64.4763C64.7339 65.773 66.5516 67.5031 71.031 67.5031C74.6717 67.5031 76.066 66.4045 77.9957 64.8851C80.1644 63.176 82.863 61.0496 88.2163 61.0496C91.2534 61.0496 93.6627 61.6365 95.5595 62.4855V52.0225H64V64.4763Z" fill="url(#paint2_linear_5_290)"/>
<defs>
<linearGradient id="paint0_linear_5_290" x1="21.5977" y1="16.0352" x2="88.9816" y2="103.546" gradientUnits="userSpaceOnUse">
<stop stop-color="#224A81"/>
<stop offset="1" stop-color="#2797D3"/>
</linearGradient>
<linearGradient id="paint1_linear_5_290" x1="21.5977" y1="17.9238" x2="98.6367" y2="107.432" gradientUnits="userSpaceOnUse">
<stop stop-color="#224A81"/>
<stop offset="1" stop-color="#2797D3"/>
</linearGradient>
<linearGradient id="paint2_linear_5_290" x1="69.979" y1="54.4564" x2="77.5607" y2="72.4144" gradientUnits="userSpaceOnUse">
<stop stop-color="#224A81"/>
<stop offset="1" stop-color="#2797D3"/>
</linearGradient>
</defs>
</svg>
