<svg width="88" height="125" viewBox="0 0 88 125" fill="none" xmlns="http://www.w3.org/2000/svg">
<path d="M75.8985 124.119C82.5487 124.119 87.9186 118.75 87.9186 112.099V33.4117C87.9186 26.7615 82.5486 21.3918 75.8985 21.3918H70.5287C69.9918 17.3437 66.5633 14.2046 62.3503 14.2046H60.7806C60.0372 7.38909 55.1217 1.77153 48.5127 0.491053C43.9277 -0.376452 39.3015 0.780195 35.7493 3.71279C32.5686 6.3564 30.586 10.1151 30.2142 14.2046H26.4966C22.2836 14.2046 18.8551 17.3436 18.3181 21.3918H12.9483C6.29815 21.3918 0.928223 26.7615 0.928223 33.4116V112.099C0.928223 118.75 6.29819 124.119 12.9483 124.119H75.8985ZM9.18939 112.099V33.4117C9.18939 31.3464 10.8831 29.6529 12.9483 29.6529H18.3181C18.8551 33.7009 22.2835 36.8402 26.4965 36.8402H62.3502C66.5632 36.8402 69.9917 33.7009 70.5287 29.653H75.8985C77.9638 29.653 79.6574 31.3464 79.6574 33.4117V112.099C79.6574 114.165 77.9638 115.858 75.8985 115.858H12.9483C10.8831 115.858 9.18939 114.165 9.18939 112.099Z" fill="url(#paint0_linear_5_196)"/>
<path d="M23.7743 85.2091H31.9528V93.4292C31.9528 95.701 33.8116 97.5598 36.0834 97.5598H52.7711C55.0429 97.5598 56.9017 95.701 56.9017 93.4292V85.2091H65.0802C67.3933 85.2091 69.2108 83.3506 69.2108 81.0786V64.4324C69.2108 62.1607 67.3933 60.3018 65.0802 60.3018H56.9017V52.082C56.9017 49.8103 55.0429 47.9514 52.7711 47.9514H36.0834C33.8116 47.9514 31.9528 49.8103 31.9528 52.082V60.3018H23.7743C21.4612 60.3018 19.6437 62.1607 19.6437 64.4324V81.0786C19.6437 83.3506 21.4612 85.2091 23.7743 85.2091ZM27.9049 68.563H36.0834C38.3965 68.563 40.214 66.7042 40.214 64.4324V56.2126H48.6405V64.4324C48.6405 66.7042 50.458 68.563 52.7711 68.563H60.9496V76.948H52.7711C50.458 76.948 48.6405 78.8068 48.6405 81.0786V89.2986H40.214V81.0786C40.214 78.8068 38.3965 76.948 36.0834 76.948H27.9049V68.563Z" fill="url(#paint1_linear_5_196)"/>
<defs>
<linearGradient id="paint0_linear_5_196" x1="57.2899" y1="24.7335" x2="-4.23469" y2="124.119" gradientUnits="userSpaceOnUse">
<stop stop-color="#224A81"/>
<stop offset="1" stop-color="#2797D3"/>
</linearGradient>
<linearGradient id="paint1_linear_5_196" x1="57.2899" y1="24.7335" x2="-4.23469" y2="124.119" gradientUnits="userSpaceOnUse">
<stop stop-color="#224A81"/>
<stop offset="1" stop-color="#2797D3"/>
</linearGradient>
</defs>
</svg>
