<svg width="117" height="117" viewBox="0 0 117 117" fill="none" xmlns="http://www.w3.org/2000/svg">
<circle cx="58.5" cy="58.5" r="56" fill="white" stroke="#0099A1" stroke-width="5"/>
<path fill-rule="evenodd" clip-rule="evenodd" d="M88 88.6013C88 93.0354 84.4197 96.6156 79.9857 96.6156H38.0143C33.5804 96.6156 30 93.0354 30 88.6013V36.1371C30 31.7031 33.5803 28.1229 38.0143 28.1229H41.5945C41.9526 25.4239 44.2385 23.331 47.0475 23.331H49.5261C49.7741 20.6043 51.0959 18.0982 53.2166 16.3356C55.585 14.3804 58.6695 13.6092 61.7265 14.1876C66.133 15.0413 69.4103 18.7868 69.906 23.331H70.9526C73.7616 23.331 76.0475 25.4239 76.4055 28.123H79.9857C84.4196 28.123 88 31.7031 88 36.1371V88.6013ZM35.5081 36.1371V88.6013C35.5081 89.9783 36.6373 91.1076 38.0143 91.1076H79.9857C81.3627 91.1076 82.4919 89.9783 82.4919 88.6013V36.1371C82.4919 34.7601 81.3627 33.631 79.9857 33.631H76.4055C76.0474 36.3299 73.7615 38.423 70.9525 38.423H47.0474C44.2384 38.423 41.9526 36.3299 41.5945 33.631H38.0143C36.6373 33.631 35.5081 34.7601 35.5081 36.1371ZM58.9726 54.7281C60.2293 52.5588 62.6307 50.1443 66.3682 50.1443C71.1115 50.1443 74.7499 53.7308 74.7499 58.4875C74.7499 63.5971 70.2763 67.0919 63.5747 72.3273L63.3845 72.4759C60.8439 74.4591 60.0207 75.1208 59.4572 75.5738C59.2853 75.712 59.1376 75.8307 58.9726 75.9617C58.7559 75.7897 58.5801 75.6484 58.3857 75.4922C57.8047 75.0253 57.0584 74.4256 54.5607 72.4759L54.3705 72.3273C47.669 67.0919 43.1953 63.5971 43.1953 58.4875C43.1953 53.7307 46.8338 50.1443 51.577 50.1443C55.3146 50.1443 57.7159 52.5588 58.9726 54.7281Z" fill="url(#paint0_linear_364_21)"/>
<defs>
<linearGradient id="paint0_linear_364_21" x1="79.5" y1="38.5" x2="43.0015" y2="85.3412" gradientUnits="userSpaceOnUse">
<stop stop-color="#0099A1"/>
<stop offset="1" stop-color="#0071A1"/>
</linearGradient>
</defs>
</svg>
