<svg width="117" height="117" viewBox="0 0 117 117" fill="none" xmlns="http://www.w3.org/2000/svg">
<circle cx="58.5" cy="58.5" r="56" fill="white" stroke="#0099A1" stroke-width="5"/>
<path d="M24 50.0277V87.7862C24 92.1143 27.5072 95.6215 31.8353 95.6215H85.1647C89.4929 95.6215 93 92.1143 93 87.7862V59.6041C93 55.8483 90.3385 52.7142 86.8064 51.9431V26.1489C86.8064 23.3132 84.4932 21 81.6576 21H35.3425C32.5068 21 30.1936 23.3132 30.1936 26.1489V42.3666C26.6615 43.1376 24 46.2718 24 50.0277V50.0277ZM71.9319 78.4087C71.9319 79.7769 70.8126 80.8961 69.4445 80.8961H65.7135V84.6272C65.7135 85.9954 64.5941 87.1146 63.2261 87.1146H53.7739C52.4059 87.1146 51.2865 85.9954 51.2865 84.6272V80.8961H47.5554C46.1874 80.8961 45.0681 79.7769 45.0681 78.4087V68.9816C45.0681 67.6136 46.1874 66.4942 47.5554 66.4942H51.2865V62.7631C51.2865 61.3951 52.4059 60.2758 53.7739 60.2758H63.2261C64.5941 60.2758 65.7135 61.3951 65.7135 62.7631V66.4942H69.4445C70.8126 66.4942 71.9319 67.6136 71.9319 68.9816V78.4087ZM35.1684 26.1489C35.1684 26.0493 35.243 25.9748 35.3425 25.9748H81.6576C81.757 25.9748 81.8317 26.0493 81.8317 26.1489V51.7689H61.8579C60.7635 51.7689 59.7686 51.1471 59.296 50.1521L57.6295 46.6449C56.336 43.9336 53.5501 42.1924 50.5653 42.1924H35.1684V26.1489Z" fill="url(#paint0_linear_364_30)"/>
<path d="M60.7364 68.9821V65.251H56.259V68.9821C56.259 70.3501 55.1645 71.4694 53.7716 71.4694H50.0405V75.9218H53.7716C55.1645 75.9218 56.259 77.0412 56.259 78.4092V82.1403H60.7364V78.4092C60.7364 77.0412 61.8309 75.9218 63.2238 75.9218H66.9549V71.4694H63.2238C61.8309 71.4694 60.7364 70.3501 60.7364 68.9821Z" fill="url(#paint1_linear_364_30)"/>
<path d="M40.3472 33.0006H57.1881C58.5629 33.0006 59.6755 31.8869 59.6755 30.5133C59.6755 29.1396 58.5629 28.0259 57.1881 28.0259H40.3472C38.9724 28.0259 37.8599 29.1396 37.8599 30.5133C37.8599 31.8869 38.9724 33.0006 40.3472 33.0006Z" fill="url(#paint2_linear_364_30)"/>
<path d="M59.6755 37.6593C59.6755 36.2856 58.5629 35.1719 57.1881 35.1719H40.3472C38.9724 35.1719 37.8599 36.2856 37.8599 37.6593C37.8599 39.0329 38.9724 40.1466 40.3472 40.1466H57.1881C58.563 40.1466 59.6755 39.0329 59.6755 37.6593V37.6593Z" fill="url(#paint3_linear_364_30)"/>
<path d="M70.8102 44.9525C75.4616 44.9525 79.2672 41.1467 79.2672 36.4953C79.2672 31.8191 75.4616 28.0134 70.8102 28.0134C66.1339 28.0134 62.353 31.8191 62.353 36.4953C62.353 41.1467 66.1339 44.9525 70.8102 44.9525ZM70.8102 32.9882C72.7254 32.9882 74.2924 34.5552 74.2924 36.4953C74.2924 38.4107 72.7254 39.9777 70.8102 39.9777C68.8948 39.9777 67.3278 38.4107 67.3278 36.4953C67.3278 34.5552 68.8948 32.9882 70.8102 32.9882V32.9882Z" fill="url(#paint4_linear_364_30)"/>
<defs>
<linearGradient id="paint0_linear_364_30" x1="86.4437" y1="31.6232" x2="29.4411" y2="95.8806" gradientUnits="userSpaceOnUse">
<stop stop-color="#0099A1"/>
<stop offset="1" stop-color="#0071A1"/>
</linearGradient>
<linearGradient id="paint1_linear_364_30" x1="65.3477" y1="67.6554" x2="52.6081" y2="83.2094" gradientUnits="userSpaceOnUse">
<stop stop-color="#0099A1"/>
<stop offset="1" stop-color="#0071A1"/>
</linearGradient>
<linearGradient id="paint2_linear_364_30" x1="57.6026" y1="28.7341" x2="56.2191" y2="36.1303" gradientUnits="userSpaceOnUse">
<stop stop-color="#0099A1"/>
<stop offset="1" stop-color="#0071A1"/>
</linearGradient>
<linearGradient id="paint3_linear_364_30" x1="57.6026" y1="35.8801" x2="56.2191" y2="43.2763" gradientUnits="userSpaceOnUse">
<stop stop-color="#0099A1"/>
<stop offset="1" stop-color="#0071A1"/>
</linearGradient>
<linearGradient id="paint4_linear_364_30" x1="77.66" y1="30.4249" x2="64.8755" y2="45.9878" gradientUnits="userSpaceOnUse">
<stop stop-color="#0099A1"/>
<stop offset="1" stop-color="#0071A1"/>
</linearGradient>
</defs>
</svg>
