<svg width="117" height="117" viewBox="0 0 117 117" fill="none" xmlns="http://www.w3.org/2000/svg">
<circle cx="58.5" cy="58.5" r="56" fill="white" stroke="#0099A1" stroke-width="5"/>
<path d="M79.3611 37.6399C67.8405 26.1207 49.1617 26.1194 37.6399 37.6399C26.1194 49.1604 26.1207 67.8393 37.6399 79.3611C49.1604 90.879 67.8393 90.8803 79.3611 79.3611C90.8803 67.8393 90.879 49.1617 79.3611 37.6399ZM62.3471 71.3267C62.3471 72.3472 61.9417 73.3259 61.2201 74.0476C60.4984 74.7692 59.5197 75.1746 58.4992 75.1746C57.4787 75.1746 56.5 74.7692 55.7783 74.0476C55.0567 73.3259 54.6513 72.3472 54.6513 71.3267V55.9352C54.6513 54.9147 55.0567 53.936 55.7783 53.2144C56.5 52.4928 57.4787 52.0874 58.4992 52.0874C59.5197 52.0874 60.4984 52.4928 61.2201 53.2144C61.9417 53.936 62.3471 54.9147 62.3471 55.9352V71.3267ZM58.4312 49.3579C56.2148 49.3579 54.7373 47.788 54.7834 45.85C54.7373 43.8183 56.2148 42.2958 58.4761 42.2958C60.7387 42.2958 62.1701 43.8196 62.2175 45.85C62.2162 47.788 60.7399 49.3579 58.4312 49.3579Z" fill="#0099A1"/>
</svg>
