<svg width="117" height="117" viewBox="0 0 117 117" fill="none" xmlns="http://www.w3.org/2000/svg">
<circle cx="58.5" cy="58.5" r="56" fill="white" stroke="#0099A1" stroke-width="5"/>
<path d="M34.2368 76.8193C34.2368 79.1082 36.0992 80.9706 38.3881 80.9706C39.0684 80.9706 39.6801 80.5926 39.9843 79.9841C41.0409 77.8713 43.1645 76.5588 45.5265 76.5588H45.6874C46.6715 76.5588 47.4721 75.7584 47.4721 74.7743V54.5C40.1742 54.5 34.2368 60.4374 34.2368 67.7353V76.8193Z" fill="url(#paint0_linear_364_82)"/>
<path d="M60.7059 39.0586V51.3802L65.1176 55.792V54.4998C65.1176 52.0671 67.0968 50.088 69.5294 50.088C79.26 50.088 87.1765 58.0045 87.1765 67.7351V76.819C87.1765 81.5407 83.335 85.3821 78.6134 85.3821C76.2513 85.3821 74.1275 84.0696 73.0713 81.9568C72.7671 81.3483 72.1553 80.9704 71.475 80.9704H71.314C67.8972 80.9704 65.1176 78.1908 65.1176 74.774V62.0311L58.5 55.4134L51.8824 62.0311V74.774C51.8824 78.1908 49.1026 80.9704 45.6859 80.9704H45.525C44.8447 80.9704 44.2331 81.3483 43.9288 81.9568C42.8724 84.0696 40.7488 85.3821 38.3866 85.3821C33.6649 85.3821 29.8235 81.5407 29.8235 76.819V67.7351C29.8235 58.0045 37.7399 50.088 47.4706 50.088C49.9032 50.088 51.8824 52.0671 51.8824 54.4998V55.792L56.2941 51.3802V39.0586H21V91.9998H96V39.0586H60.7059Z" fill="url(#paint1_linear_364_82)"/>
<path d="M71.4767 76.5588C73.8388 76.5588 75.9626 77.8713 77.0188 79.9841C77.323 80.5926 77.9348 80.9706 78.6151 80.9706C80.9042 80.9706 82.7665 79.1082 82.7665 76.8193V67.7353C82.7665 60.4374 76.8292 54.5 69.5312 54.5V74.7743C69.5312 75.7582 70.3317 76.5588 71.3158 76.5588H71.4767Z" fill="url(#paint2_linear_364_82)"/>
<path d="M73.9416 23.6176H66.9075L65.5125 17H51.4886L50.0935 23.6176H43.0592C36.5128 23.6176 31.0622 28.3954 30.0088 34.6471H86.992C85.9386 28.3954 80.4881 23.6176 73.9416 23.6176V23.6176Z" fill="url(#paint3_linear_364_82)"/>
<defs>
<linearGradient id="paint0_linear_364_82" x1="43.428" y1="58.1765" x2="27.0532" y2="68.2018" gradientUnits="userSpaceOnUse">
<stop stop-color="#0099A1"/>
<stop offset="1" stop-color="#0071A1"/>
</linearGradient>
<linearGradient id="paint1_linear_364_82" x1="73.0833" y1="46.4115" x2="41.2632" y2="101.61" gradientUnits="userSpaceOnUse">
<stop stop-color="#0099A1"/>
<stop offset="1" stop-color="#0071A1"/>
</linearGradient>
<linearGradient id="paint2_linear_364_82" x1="78.7224" y1="58.1765" x2="62.3477" y2="68.2018" gradientUnits="userSpaceOnUse">
<stop stop-color="#0099A1"/>
<stop offset="1" stop-color="#0071A1"/>
</linearGradient>
<linearGradient id="paint3_linear_364_82" x1="69.5805" y1="19.451" x2="63.7534" y2="42.4911" gradientUnits="userSpaceOnUse">
<stop stop-color="#0099A1"/>
<stop offset="1" stop-color="#0071A1"/>
</linearGradient>
</defs>
</svg>
