<svg width="117" height="117" viewBox="0 0 117 117" fill="none" xmlns="http://www.w3.org/2000/svg">
<circle cx="58.5" cy="58.5" r="56" fill="white" stroke="#0099A1" stroke-width="5"/>
<path d="M73.787 22.6176H66.7528L65.3578 16H51.334L49.9389 22.6176H42.9046C36.3581 22.6176 30.9075 27.3954 29.8542 33.6471H86.8374C85.784 27.3954 80.3334 22.6176 73.787 22.6176Z" fill="url(#paint0_linear_364_73)"/>
<path d="M21 38.3958H96V91.5208H21V38.3958Z" fill="url(#paint1_linear_364_73)"/>
<path fill-rule="evenodd" clip-rule="evenodd" d="M83.2054 46.824L89.9744 56.9765C90.1517 57.2423 90.2536 57.5513 90.2691 57.8705C90.2846 58.1897 90.2131 58.5071 90.0624 58.7888C89.9116 59.0706 89.6872 59.3061 89.4131 59.4703C89.139 59.6345 88.8254 59.7212 88.5058 59.7212H82.54C81.6946 67.2649 80.0796 73.462 77.7303 78.1605C77.4302 78.7589 76.8195 79.1366 76.1506 79.1366C73.7943 79.133 71.439 79.0359 69.0904 78.8454V91.4919H65.5603V76.9126C65.5606 76.6661 65.6125 76.4224 65.7127 76.1971C65.8128 75.9719 65.9591 75.7701 66.142 75.6048C66.3249 75.4395 66.5404 75.3144 66.7746 75.2375C67.0089 75.1605 67.2566 75.1335 67.5019 75.1582C70.0073 75.4122 72.5224 75.5595 75.0404 75.5994C75.2981 75.0346 75.5434 74.4486 75.7782 73.8415H65.5603C63.6135 73.8415 62.0303 75.4247 62.0303 77.3715V91.4919H58.5002V77.3715C58.5002 73.4779 61.6667 70.3114 65.5603 70.3114H76.9484C77.606 67.9913 78.1229 65.6336 78.4963 63.2512H60.2652C57.3459 63.2512 54.9701 60.8755 54.9701 57.9561C54.9701 55.0367 57.3459 52.661 60.2652 52.661H71.4044C75.0963 52.6623 78.6804 53.9057 81.5798 56.1911H83.735L79.1211 52.2356C76.786 50.2341 73.8048 49.1309 70.7266 49.1309H60.2652C55.399 49.1309 51.44 53.0899 51.44 57.9561V91.4919H47.91V57.9561C47.91 51.1431 53.4539 45.6009 60.2652 45.6009H70.7266C74.0868 45.6034 77.3655 46.6365 80.1202 48.5608L79.9772 48.3455C79.7848 48.056 79.6807 47.7136 79.6807 47.3659C79.6807 44.2036 79.0837 41.1782 77.9964 38.3965H81.7502C82.6423 41.0528 83.1496 43.8842 83.2054 46.824ZM28.1894 38.3965C27.2427 41.2157 26.7295 44.232 26.7295 47.3659C26.7295 56.0358 30.5773 64.0208 37.3197 69.413V91.4919H40.8498V68.5481C40.8498 67.9939 40.5886 67.4697 40.1456 67.1361C33.862 62.4181 30.2596 55.2133 30.2596 47.3659C30.2596 44.2036 30.8566 41.1782 31.9438 38.3965H28.1894ZM60.2652 59.7212H78.9799L79.0876 58.738C76.8707 57.0948 74.1808 56.1911 71.4062 56.1911H60.2652C59.8108 56.2114 59.3817 56.4062 59.0673 56.735C58.7528 57.0638 58.5774 57.5012 58.5774 57.9561C58.5774 58.411 58.7528 58.8484 59.0673 59.1772C59.3817 59.506 59.8108 59.7008 60.2652 59.7212ZM44.3799 57.9561C42.4666 57.9561 40.8498 55.531 40.8498 52.661C40.8498 49.7911 42.4666 47.3659 44.3799 47.3659C44.848 47.3659 45.2969 47.1799 45.628 46.8489C45.959 46.5179 46.1449 46.069 46.1449 45.6009C46.1449 45.1327 45.959 44.6838 45.628 44.3528C45.2969 44.0218 44.848 43.8358 44.3799 43.8358C40.4862 43.8358 37.3197 47.7948 37.3197 52.661C37.3197 57.5272 40.4862 61.4862 44.3799 61.4862C44.848 61.4862 45.2969 61.3002 45.628 60.9692C45.959 60.6382 46.1449 60.1893 46.1449 59.7212C46.1449 59.253 45.959 58.8041 45.628 58.4731C45.2969 58.1421 44.848 57.9561 44.3799 57.9561Z" fill="white"/>
<defs>
<linearGradient id="paint0_linear_364_73" x1="96" y1="24.8542" x2="43.1354" y2="75.6354" gradientUnits="userSpaceOnUse">
<stop stop-color="#0099A1"/>
<stop offset="1" stop-color="#0071A1"/>
</linearGradient>
<linearGradient id="paint1_linear_364_73" x1="96" y1="24.8542" x2="43.1354" y2="75.6354" gradientUnits="userSpaceOnUse">
<stop stop-color="#0099A1"/>
<stop offset="1" stop-color="#0071A1"/>
</linearGradient>
</defs>
</svg>
