<svg width="117" height="117" viewBox="0 0 117 117" fill="none" xmlns="http://www.w3.org/2000/svg">
<circle cx="58.5" cy="58.5" r="56" fill="white" stroke="#0099A1" stroke-width="5"/>
<path d="M29.1777 70V46.7273H43.2232V49.2273H31.9959V57.0909H42.4959V59.5909H31.9959V67.5H43.405V70H29.1777Z" fill="#0099A1"/>
<path d="M71.7573 67.5L71.4391 75H68.6664V70H66.3936V67.5H71.7573ZM47.9391 52.5455H50.6209V67.5H57.2118V52.5455H59.8936V67.5H66.4846V52.5455H69.1664V70H47.9391V52.5455Z" fill="#0099A1"/>
<path d="M82.7885 70.3637C81.1067 70.3637 79.656 69.9924 78.4363 69.25C77.2241 68.5 76.2885 67.4546 75.6294 66.1137C74.9779 64.7652 74.6522 63.197 74.6522 61.4091C74.6522 59.6212 74.9779 58.0455 75.6294 56.6818C76.2885 55.3106 77.2052 54.2424 78.3794 53.4773C79.5613 52.7046 80.94 52.3182 82.5158 52.3182C83.4249 52.3182 84.3226 52.4697 85.209 52.7727C86.0953 53.0758 86.9022 53.5682 87.6294 54.25C88.3567 54.9243 88.9363 55.8182 89.3681 56.9318C89.7999 58.0455 90.0158 59.4167 90.0158 61.0455V62.1818H76.5613V59.8637H87.2885C87.2885 58.8788 87.0916 58 86.6976 57.2273C86.3113 56.4546 85.7582 55.8447 85.0385 55.3977C84.3264 54.9508 83.4855 54.7273 82.5158 54.7273C81.4476 54.7273 80.5234 54.9924 79.7431 55.5227C78.9703 56.0455 78.3757 56.7273 77.959 57.5682C77.5423 58.4091 77.334 59.3106 77.334 60.2727V61.8182C77.334 63.1364 77.5613 64.2538 78.0158 65.1705C78.4779 66.0796 79.1181 66.7728 79.9363 67.25C80.7544 67.7197 81.7052 67.9546 82.7885 67.9546C83.4931 67.9546 84.1294 67.8561 84.6976 67.6591C85.2734 67.4546 85.7696 67.1515 86.1863 66.75C86.6029 66.3409 86.9249 65.8334 87.1522 65.2273L89.7431 65.9546C89.4703 66.8334 89.012 67.6061 88.3681 68.2728C87.7241 68.9318 86.9287 69.447 85.9817 69.8182C85.0347 70.1818 83.9703 70.3637 82.7885 70.3637Z" fill="#0099A1"/>
</svg>
