<svg width="117" height="117" viewBox="0 0 117 117" fill="none" xmlns="http://www.w3.org/2000/svg">
<circle cx="58.5" cy="58.5" r="56" fill="white" stroke="#0099A1" stroke-width="5"/>
<path fill-rule="evenodd" clip-rule="evenodd" d="M88 87.5317C88 91.9616 84.4197 95.5385 79.9857 95.5385H38.0143C33.5804 95.5385 30 91.9616 30 87.5316V35.1164C30 30.6866 33.5803 27.1097 38.0143 27.1097H41.5945C41.9526 24.4132 44.2385 22.3222 47.0475 22.3222H49.5261C49.7741 19.5982 51.0959 17.0944 53.2166 15.3335C55.585 13.38 58.6695 12.6095 61.7265 13.1874C66.133 14.0404 69.4103 17.7823 69.906 22.3223H70.9526C73.7616 22.3223 76.0475 24.4132 76.4055 27.1098H79.9857C84.4196 27.1098 88 30.6866 88 35.1164V87.5317ZM35.5081 35.1164V87.5317C35.5081 88.9074 36.6373 90.0356 38.0143 90.0356H79.9857C81.3627 90.0356 82.4919 88.9074 82.4919 87.5317V35.1164C82.4919 33.7407 81.3627 32.6127 79.9857 32.6127H76.4055C76.0474 35.3091 73.7615 37.4002 70.9525 37.4002H47.0474C44.2384 37.4002 41.9526 35.3091 41.5945 32.6127H38.0143C36.6373 32.6127 35.5081 33.7407 35.5081 35.1164ZM50.6854 69.6197H45.2324C43.6902 69.6197 42.4784 68.3816 42.4784 66.8682V55.7799C42.4784 54.2666 43.6902 53.0285 45.2324 53.0285H50.6854V47.5531C50.6854 46.0398 51.9247 44.8016 53.4394 44.8016H64.5658C66.0804 44.8016 67.3198 46.0398 67.3198 47.5531V53.0285H72.7727C74.315 53.0285 75.5267 54.2666 75.5267 55.7799V66.8682C75.5267 68.3816 74.315 69.6197 72.7727 69.6197H67.3198V75.0952C67.3198 76.6085 66.0804 77.8467 64.5658 77.8467H53.4394C51.9247 77.8467 50.6854 76.6085 50.6854 75.0952V69.6197Z" fill="url(#paint0_linear_364_20)"/>
<defs>
<linearGradient id="paint0_linear_364_20" x1="88" y1="21.9231" x2="37.8077" y2="90.5192" gradientUnits="userSpaceOnUse">
<stop stop-color="#0099A1"/>
<stop offset="1" stop-color="#0071A1"/>
</linearGradient>
</defs>
</svg>
