<svg width="117" height="117" viewBox="0 0 117 117" fill="none" xmlns="http://www.w3.org/2000/svg">
<circle cx="58.5" cy="58.5" r="56" fill="white" stroke="#0099A1" stroke-width="5"/>
<path fill-rule="evenodd" clip-rule="evenodd" d="M88 58.5C88 74.7924 74.7924 88 58.5 88C42.2076 88 29 74.7924 29 58.5C29 42.2076 42.2076 29 58.5 29C74.7924 29 88 42.2076 88 58.5ZM47.5196 53.4477C47.0018 52.9299 46.387 52.5191 45.7105 52.2389C45.0339 51.9586 44.3087 51.8144 43.5764 51.8144C42.844 51.8144 42.1189 51.9587 41.4423 52.2389C40.7657 52.5192 40.151 52.93 39.6332 53.4479C37.4556 55.6255 37.4556 59.1563 39.6332 61.3339L50.6497 72.3508C51.1675 72.8687 51.7822 73.2795 52.4588 73.5598C53.1354 73.84 53.8605 73.9843 54.5928 73.9843C55.3252 73.9843 56.0503 73.8401 56.7269 73.5598C57.4035 73.2796 58.0182 72.8688 58.536 72.351L78.3667 52.5203C79.4555 51.4316 79.9999 50.0046 80 48.5775C80 48.3033 79.9799 48.029 79.9397 47.7571C79.7708 46.6144 79.2466 45.514 78.3672 44.6343L78.3666 44.6337C77.7407 44.0077 76.9747 43.5397 76.1321 43.2684C75.2894 42.997 74.3943 42.9302 73.5207 43.0735C73.521 43.0735 73.5213 43.0736 73.5216 43.0736C73.0996 43.1427 72.686 43.2603 72.2891 43.4247C71.6125 43.7049 70.9977 44.1157 70.4799 44.6335L55.0563 60.057C54.9333 60.18 54.7665 60.2491 54.5926 60.2491C54.4187 60.2491 54.252 60.18 54.129 60.057L47.5196 53.4477Z" fill="#0099A1"/>
</svg>
