<svg width="117" height="117" viewBox="0 0 117 117" fill="none" xmlns="http://www.w3.org/2000/svg">
<circle cx="58.5" cy="58.5" r="56" fill="white" stroke="#0099A1" stroke-width="5"/>
<mask id="path-2-outside-1_26_577" maskUnits="userSpaceOnUse" x="20" y="26" width="76" height="76" fill="black">
<rect fill="white" x="20" y="26" width="76" height="76"/>
<path d="M85.7105 28.0577C81.7489 27.2974 77.55 28.6757 74.8129 31.9239L74.4339 32.374C71.8234 29.0755 67.7937 27 63.3185 27H52.6815C48.2144 27 44.1811 29.0694 41.5662 32.374L41.1868 31.9233C39.0076 29.3374 35.8194 27.8542 32.4396 27.8542C26.1009 27.8542 21 33.0092 21 39.2924V44.6546C21 49.4295 23.2055 53.9606 26.9297 56.9094C26.8444 60.7693 29.9622 63.8555 33.7188 63.8555C37.4644 63.8555 40.5117 60.8082 40.5117 57.0625C40.5117 53.3168 37.4644 50.2695 33.7188 50.2695C31.6804 50.2695 29.8504 51.1731 28.6042 52.5995C26.5332 50.5034 25.3359 47.6453 25.3359 44.6545V39.2924C25.3359 35.8882 27.7619 32.9544 31.1065 32.316C33.5595 31.8453 36.169 32.6973 37.8707 34.7168L39.3167 36.4338C38.3742 39.0726 38.4883 40.9386 38.4883 42.9846C38.4883 44.9545 38.8886 46.8686 39.6782 48.6736L46.3567 63.9387L44.4985 67.6555C44.3093 68.0335 44.2349 68.4586 44.2844 68.8784L46.5969 88.5346C46.6295 88.8111 46.715 89.0788 46.8488 89.323L52.6301 99.8738C52.8169 100.215 53.0919 100.499 53.4264 100.697C53.7609 100.895 54.1425 101 54.5312 101H61.4688C61.8575 101 62.2391 100.895 62.5736 100.697C62.9081 100.499 63.1831 100.215 63.3699 99.8738L69.1512 89.323C69.285 89.0789 69.3706 88.8112 69.4031 88.5346L71.7156 68.8784C71.765 68.4586 71.6906 68.0335 71.5015 67.6555L69.6433 63.9387C76.3637 48.5778 76.3218 48.6879 76.3218 48.6735C77.1115 46.8686 77.5117 44.9545 77.5117 42.9846V41.1933C77.5117 39.5544 77.2234 37.9461 76.6834 36.434L78.129 34.7175C79.8287 32.7005 82.4362 31.8444 84.8955 32.3166C88.2381 32.9544 90.6641 35.8882 90.6641 39.2924V44.6546C90.6641 47.6356 89.4653 50.5027 87.3961 52.5998C86.1499 51.1733 84.3197 50.2695 82.2812 50.2695C78.5356 50.2695 75.4883 53.3168 75.4883 57.0625C75.4883 60.8082 78.5356 63.8555 82.2812 63.8555C86.0315 63.8555 89.1539 60.7754 89.0703 56.9107C92.7905 53.9646 95 49.4145 95 44.6545V39.2924C95 33.81 91.0925 29.0852 85.7105 28.0577ZM33.7188 54.6055C35.0736 54.6055 36.1758 55.7077 36.1758 57.0625C36.1758 58.4173 35.0736 59.5195 33.7188 59.5195C32.3639 59.5195 31.2617 58.4173 31.2617 57.0625C31.2617 55.7077 32.3639 54.6055 33.7188 54.6055ZM58 58.5911L52.0742 45.0465V41.3044C55.9894 42.0522 60.0106 42.0522 63.9258 41.3044V45.0466L58 58.5911ZM73.1758 42.9846C73.1775 44.3447 72.896 45.6903 72.3494 46.9358L65.2639 63.1311C65.1365 63.4223 65.0747 63.7379 65.0828 64.0556C65.091 64.3733 65.1688 64.6854 65.311 64.9697L67.3337 69.0152L65.1461 87.6093L60.1846 96.6641C60.1587 96.6641 60.168 64.4535 60.168 64.4535L68.0799 46.3691C68.1998 46.095 68.2617 45.7991 68.2617 45.5V38.5625C68.2617 37.1195 66.8774 36.0826 65.4981 36.4779C60.5976 37.8794 55.4024 37.8794 50.5019 36.4779C49.123 36.0831 47.7383 37.1182 47.7383 38.5625V45.5C47.7383 45.7991 47.8002 46.095 47.9201 46.3691L55.832 64.4535V96.6641L50.8539 87.6093L48.6663 69.0152L50.689 64.9697C50.8312 64.6854 50.909 64.3733 50.9172 64.0556C50.9253 63.7379 50.8635 63.4223 50.7361 63.1311L43.6506 46.9358C43.104 45.6903 42.8225 44.3447 42.8242 42.9846V41.1933C42.8242 35.8296 47.1682 31.3359 52.6815 31.3359H63.3185C68.8336 31.3359 73.1758 35.8313 73.1758 41.1933V42.9846ZM82.2812 59.5195C80.9264 59.5195 79.8242 58.4173 79.8242 57.0625C79.8242 55.7077 80.9264 54.6055 82.2812 54.6055C83.6361 54.6055 84.7383 55.7077 84.7383 57.0625C84.7383 58.4173 83.6361 59.5195 82.2812 59.5195Z"/>
</mask>
<path d="M85.7105 28.0577C81.7489 27.2974 77.55 28.6757 74.8129 31.9239L74.4339 32.374C71.8234 29.0755 67.7937 27 63.3185 27H52.6815C48.2144 27 44.1811 29.0694 41.5662 32.374L41.1868 31.9233C39.0076 29.3374 35.8194 27.8542 32.4396 27.8542C26.1009 27.8542 21 33.0092 21 39.2924V44.6546C21 49.4295 23.2055 53.9606 26.9297 56.9094C26.8444 60.7693 29.9622 63.8555 33.7188 63.8555C37.4644 63.8555 40.5117 60.8082 40.5117 57.0625C40.5117 53.3168 37.4644 50.2695 33.7188 50.2695C31.6804 50.2695 29.8504 51.1731 28.6042 52.5995C26.5332 50.5034 25.3359 47.6453 25.3359 44.6545V39.2924C25.3359 35.8882 27.7619 32.9544 31.1065 32.316C33.5595 31.8453 36.169 32.6973 37.8707 34.7168L39.3167 36.4338C38.3742 39.0726 38.4883 40.9386 38.4883 42.9846C38.4883 44.9545 38.8886 46.8686 39.6782 48.6736L46.3567 63.9387L44.4985 67.6555C44.3093 68.0335 44.2349 68.4586 44.2844 68.8784L46.5969 88.5346C46.6295 88.8111 46.715 89.0788 46.8488 89.323L52.6301 99.8738C52.8169 100.215 53.0919 100.499 53.4264 100.697C53.7609 100.895 54.1425 101 54.5312 101H61.4688C61.8575 101 62.2391 100.895 62.5736 100.697C62.9081 100.499 63.1831 100.215 63.3699 99.8738L69.1512 89.323C69.285 89.0789 69.3706 88.8112 69.4031 88.5346L71.7156 68.8784C71.765 68.4586 71.6906 68.0335 71.5015 67.6555L69.6433 63.9387C76.3637 48.5778 76.3218 48.6879 76.3218 48.6735C77.1115 46.8686 77.5117 44.9545 77.5117 42.9846V41.1933C77.5117 39.5544 77.2234 37.9461 76.6834 36.434L78.129 34.7175C79.8287 32.7005 82.4362 31.8444 84.8955 32.3166C88.2381 32.9544 90.6641 35.8882 90.6641 39.2924V44.6546C90.6641 47.6356 89.4653 50.5027 87.3961 52.5998C86.1499 51.1733 84.3197 50.2695 82.2812 50.2695C78.5356 50.2695 75.4883 53.3168 75.4883 57.0625C75.4883 60.8082 78.5356 63.8555 82.2812 63.8555C86.0315 63.8555 89.1539 60.7754 89.0703 56.9107C92.7905 53.9646 95 49.4145 95 44.6545V39.2924C95 33.81 91.0925 29.0852 85.7105 28.0577ZM33.7188 54.6055C35.0736 54.6055 36.1758 55.7077 36.1758 57.0625C36.1758 58.4173 35.0736 59.5195 33.7188 59.5195C32.3639 59.5195 31.2617 58.4173 31.2617 57.0625C31.2617 55.7077 32.3639 54.6055 33.7188 54.6055ZM58 58.5911L52.0742 45.0465V41.3044C55.9894 42.0522 60.0106 42.0522 63.9258 41.3044V45.0466L58 58.5911ZM73.1758 42.9846C73.1775 44.3447 72.896 45.6903 72.3494 46.9358L65.2639 63.1311C65.1365 63.4223 65.0747 63.7379 65.0828 64.0556C65.091 64.3733 65.1688 64.6854 65.311 64.9697L67.3337 69.0152L65.1461 87.6093L60.1846 96.6641C60.1587 96.6641 60.168 64.4535 60.168 64.4535L68.0799 46.3691C68.1998 46.095 68.2617 45.7991 68.2617 45.5V38.5625C68.2617 37.1195 66.8774 36.0826 65.4981 36.4779C60.5976 37.8794 55.4024 37.8794 50.5019 36.4779C49.123 36.0831 47.7383 37.1182 47.7383 38.5625V45.5C47.7383 45.7991 47.8002 46.095 47.9201 46.3691L55.832 64.4535V96.6641L50.8539 87.6093L48.6663 69.0152L50.689 64.9697C50.8312 64.6854 50.909 64.3733 50.9172 64.0556C50.9253 63.7379 50.8635 63.4223 50.7361 63.1311L43.6506 46.9358C43.104 45.6903 42.8225 44.3447 42.8242 42.9846V41.1933C42.8242 35.8296 47.1682 31.3359 52.6815 31.3359H63.3185C68.8336 31.3359 73.1758 35.8313 73.1758 41.1933V42.9846ZM82.2812 59.5195C80.9264 59.5195 79.8242 58.4173 79.8242 57.0625C79.8242 55.7077 80.9264 54.6055 82.2812 54.6055C83.6361 54.6055 84.7383 55.7077 84.7383 57.0625C84.7383 58.4173 83.6361 59.5195 82.2812 59.5195Z" fill="#0099A1"/>
<path d="M85.7105 28.0577L85.5221 29.0398L85.523 29.0399L85.7105 28.0577ZM74.8129 31.9239L74.0482 31.2795L74.0479 31.2798L74.8129 31.9239ZM74.4339 32.374L73.6498 32.9945L74.4099 33.955L75.1989 33.018L74.4339 32.374ZM41.5662 32.374L40.8012 33.018L41.5902 33.9552L42.3504 32.9945L41.5662 32.374ZM41.1868 31.9233L41.9518 31.2793L41.9515 31.2789L41.1868 31.9233ZM26.9297 56.9094L27.9294 56.9315L27.9404 56.4342L27.5505 56.1255L26.9297 56.9094ZM28.6042 52.5995L27.8929 53.3023L28.6492 54.0679L29.3573 53.2574L28.6042 52.5995ZM31.1065 32.316L31.294 33.2983L31.295 33.2981L31.1065 32.316ZM37.8707 34.7168L38.6356 34.0726L38.6354 34.0724L37.8707 34.7168ZM39.3167 36.4338L40.2585 36.7702L40.4517 36.2291L40.0816 35.7897L39.3167 36.4338ZM39.6782 48.6736L38.762 49.0744L38.7621 49.0744L39.6782 48.6736ZM46.3567 63.9387L47.2511 64.3859L47.4606 63.967L47.2729 63.5379L46.3567 63.9387ZM44.4985 67.6555L45.3928 68.1029L45.3929 68.1027L44.4985 67.6555ZM44.2844 68.8784L45.2776 68.7615L45.2775 68.7613L44.2844 68.8784ZM46.5969 88.5346L45.6038 88.6515L45.6038 88.6517L46.5969 88.5346ZM46.8488 89.323L45.9718 89.8035L45.9719 89.8036L46.8488 89.323ZM52.6301 99.8738L53.5071 99.3933L53.5071 99.3933L52.6301 99.8738ZM54.5312 101L54.5312 102H54.5312V101ZM61.4688 101L61.4688 102L61.4688 102L61.4688 101ZM63.3699 99.8738L62.4929 99.3933L62.4929 99.3933L63.3699 99.8738ZM69.1512 89.323L68.2743 88.8423L68.2742 88.8425L69.1512 89.323ZM69.4031 88.5346L68.4099 88.4178L68.4099 88.4178L69.4031 88.5346ZM71.7156 68.8784L70.7224 68.7614L70.7224 68.7615L71.7156 68.8784ZM71.5015 67.6555L70.6071 68.1027L70.6071 68.1028L71.5015 67.6555ZM69.6433 63.9387L68.7271 63.5379L68.5394 63.967L68.7489 64.3859L69.6433 63.9387ZM76.3218 48.6735L75.4056 48.2726L75.3218 48.4643V48.6735H76.3218ZM76.6834 36.434L75.9185 35.7898L75.5484 36.2292L75.7417 36.7703L76.6834 36.434ZM78.129 34.7175L77.3643 34.0732L77.3641 34.0734L78.129 34.7175ZM84.8955 32.3166L84.707 33.2986L84.7081 33.2989L84.8955 32.3166ZM87.3961 52.5998L86.6429 53.2577L87.3515 54.0688L88.1079 53.3022L87.3961 52.5998ZM89.0703 56.9107L88.4495 56.1268L88.0598 56.4354L88.0705 56.9324L89.0703 56.9107ZM58 58.5911L57.0838 58.9919L58 61.0859L58.9162 58.9919L58 58.5911ZM52.0742 45.0465H51.0742V45.2556L51.1581 45.4473L52.0742 45.0465ZM52.0742 41.3044L52.2618 40.3222L51.0742 40.0953V41.3044H52.0742ZM63.9258 41.3044H64.9258V40.0953L63.7382 40.3222L63.9258 41.3044ZM63.9258 45.0466L64.8419 45.4474L64.9258 45.2558V45.0466H63.9258ZM73.1758 42.9846L72.1758 42.9846L72.1758 42.9858L73.1758 42.9846ZM72.3494 46.9358L71.4337 46.5339L71.4332 46.535L72.3494 46.9358ZM65.2639 63.1311L64.3477 62.7303L64.3477 62.7303L65.2639 63.1311ZM65.311 64.9697L64.4165 65.4168L64.4165 65.4169L65.311 64.9697ZM67.3337 69.0152L68.3268 69.1321L68.3618 68.8353L68.2281 68.568L67.3337 69.0152ZM65.1461 87.6093L66.023 88.0899L66.1165 87.9193L66.1392 87.7262L65.1461 87.6093ZM60.1846 96.6641V97.6641H60.7769L61.0616 97.1446L60.1846 96.6641ZM60.168 64.4535L59.2518 64.0527L59.168 64.2442L59.168 64.4533L60.168 64.4535ZM68.0799 46.3691L67.1638 45.9681L67.1637 45.9682L68.0799 46.3691ZM68.2617 45.5L67.2617 45.5L67.2617 45.5001L68.2617 45.5ZM65.4981 36.4779L65.7731 37.4394L65.7736 37.4392L65.4981 36.4779ZM50.5019 36.4779L50.2266 37.4393L50.2269 37.4394L50.5019 36.4779ZM47.7383 45.5L46.7383 45.5L46.7383 45.5L47.7383 45.5ZM47.9201 46.3691L48.8363 45.9682L48.8362 45.9682L47.9201 46.3691ZM55.832 64.4535H56.832V64.2444L56.7482 64.0527L55.832 64.4535ZM55.832 96.6641L54.9557 97.1458L56.832 96.6641H55.832ZM50.8539 87.6093L49.8608 87.7262L49.8836 87.92L49.9776 88.0911L50.8539 87.6093ZM48.6663 69.0152L47.7719 68.568L47.6383 68.8353L47.6732 69.1321L48.6663 69.0152ZM50.689 64.9697L51.5835 65.4169L51.5835 65.4168L50.689 64.9697ZM50.7361 63.1311L51.6523 62.7303L51.6523 62.7303L50.7361 63.1311ZM43.6506 46.9358L44.5668 46.535L44.5663 46.5339L43.6506 46.9358ZM42.8242 42.9846L43.8242 42.9858V42.9846H42.8242ZM85.899 27.0756C81.5913 26.249 77.0246 27.7473 74.0482 31.2795L75.5776 32.5683C78.0754 29.604 81.9065 28.3459 85.5221 29.0398L85.899 27.0756ZM74.0479 31.2798L73.669 31.7299L75.1989 33.018L75.5778 32.568L74.0479 31.2798ZM75.2181 31.7534C72.4239 28.2228 68.1089 26 63.3185 26V28C67.4786 28 71.2229 29.9281 73.6498 32.9945L75.2181 31.7534ZM63.3185 26H52.6815V28H63.3185V26ZM52.6815 26C47.8999 26 43.581 28.2162 40.782 31.7534L42.3504 32.9945C44.7812 29.9226 48.5289 28 52.6815 28V26ZM42.3312 31.7299L41.9518 31.2793L40.4218 32.5673L40.8012 33.018L42.3312 31.7299ZM41.9515 31.2789C39.5824 28.4676 36.1144 26.8542 32.4396 26.8542V28.8542C35.5243 28.8542 38.4328 30.2071 40.4221 32.5677L41.9515 31.2789ZM32.4396 26.8542C25.5457 26.8542 20 32.4599 20 39.2924H22C22 33.5585 26.6562 28.8542 32.4396 28.8542V26.8542ZM20 39.2924V44.6546H22V39.2924H20ZM20 44.6546C20 49.7362 22.3461 54.5556 26.3089 57.6934L27.5505 56.1255C24.065 53.3656 22 49.1228 22 44.6546H20ZM25.9299 56.8874C25.8321 61.3171 29.4104 64.8555 33.7188 64.8555V62.8555C30.5141 62.8555 27.8568 60.2215 27.9294 56.9315L25.9299 56.8874ZM33.7188 64.8555C38.0167 64.8555 41.5117 61.3605 41.5117 57.0625H39.5117C39.5117 60.2559 36.9121 62.8555 33.7188 62.8555V64.8555ZM41.5117 57.0625C41.5117 52.7645 38.0167 49.2695 33.7188 49.2695V51.2695C36.9121 51.2695 39.5117 53.8691 39.5117 57.0625H41.5117ZM33.7188 49.2695C31.3782 49.2695 29.278 50.3083 27.8511 51.9416L29.3573 53.2574C30.4227 52.0379 31.9827 51.2695 33.7188 51.2695V49.2695ZM29.3156 51.8967C27.4272 49.9854 26.3359 47.3789 26.3359 44.6545H24.3359C24.3359 47.9117 25.6393 51.0214 27.8929 53.3023L29.3156 51.8967ZM26.3359 44.6545V39.2924H24.3359V44.6545H26.3359ZM26.3359 39.2924C26.3359 36.3681 28.421 33.8467 31.294 33.2983L30.919 31.3337C27.1028 32.0621 24.3359 35.4084 24.3359 39.2924H26.3359ZM31.295 33.2981C33.4024 32.8937 35.6439 33.626 37.106 35.3612L38.6354 34.0724C36.6941 31.7685 33.7165 30.7969 30.918 31.3339L31.295 33.2981ZM37.1058 35.361L38.5518 37.078L40.0816 35.7897L38.6356 34.0726L37.1058 35.361ZM38.375 36.0975C37.3644 38.927 37.4883 40.9708 37.4883 42.9846H39.4883C39.4883 40.9064 39.3841 39.2182 40.2585 36.7702L38.375 36.0975ZM37.4883 42.9846C37.4883 45.0925 37.9172 47.143 38.762 49.0744L40.5944 48.2729C39.8601 46.5942 39.4883 44.8166 39.4883 42.9846H37.4883ZM38.7621 49.0744L45.4405 64.3395L47.2729 63.5379L40.5944 48.2728L38.7621 49.0744ZM45.4623 63.4915L43.604 67.2083L45.3929 68.1027L47.2511 64.3859L45.4623 63.4915ZM43.6042 67.208C43.3277 67.7606 43.219 68.3819 43.2913 68.9954L45.2775 68.7613C45.2509 68.5353 45.291 68.3064 45.3928 68.1029L43.6042 67.208ZM43.2913 68.9952L45.6038 88.6515L47.5901 88.4178L45.2776 68.7615L43.2913 68.9952ZM45.6038 88.6517C45.6514 89.0557 45.7764 89.4467 45.9718 89.8035L47.7258 88.8426C47.6537 88.7109 47.6076 88.5666 47.59 88.4175L45.6038 88.6517ZM45.9719 89.8036L51.7531 100.354L53.5071 99.3933L47.7258 88.8425L45.9719 89.8036ZM51.7531 100.354C52.0261 100.853 52.428 101.268 52.9167 101.558L53.9361 99.8369C53.7559 99.7302 53.6077 99.577 53.5071 99.3933L51.7531 100.354ZM52.9167 101.558C53.4055 101.847 53.9632 102 54.5312 102L54.5313 100C54.3218 100 54.1163 99.9437 53.9361 99.8369L52.9167 101.558ZM54.5312 102H61.4688V100H54.5312V102ZM61.4688 102C62.0368 102 62.5945 101.847 63.0833 101.558L62.0639 99.8369C61.8837 99.9437 61.6782 100 61.4687 100L61.4688 102ZM63.0833 101.558C63.572 101.268 63.9739 100.853 64.2469 100.354L62.4929 99.3933C62.3923 99.577 62.2441 99.7302 62.0639 99.8369L63.0833 101.558ZM64.2469 100.354L70.0281 89.8036L68.2742 88.8425L62.4929 99.3933L64.2469 100.354ZM70.0281 89.8037C70.2237 89.4469 70.3487 89.0556 70.3962 88.6514L68.4099 88.4178C68.3924 88.5667 68.3464 88.7108 68.2743 88.8423L70.0281 89.8037ZM70.3962 88.6515L72.7087 68.9952L70.7224 68.7615L68.4099 88.4178L70.3962 88.6515ZM72.7087 68.9953C72.7809 68.3818 72.6722 67.7606 72.3959 67.2082L70.6071 68.1028C70.709 68.3064 70.7491 68.5354 70.7224 68.7614L72.7087 68.9953ZM72.396 67.2083L70.5377 63.4915L68.7489 64.3859L70.6071 68.1027L72.396 67.2083ZM70.5594 64.3395C73.9196 56.6592 75.5892 52.8466 76.4187 50.9523C76.8333 50.0056 77.0385 49.537 77.1399 49.3045C77.1898 49.1902 77.217 49.1274 77.2317 49.0925C77.2361 49.0822 77.25 49.0494 77.2625 49.0146C77.267 49.0018 77.29 48.9387 77.3052 48.8557C77.3265 48.7399 77.3218 48.6133 77.3218 48.6735H75.3218C75.3218 48.7346 75.3171 48.6087 75.3382 48.4941C75.3532 48.4125 75.3755 48.3516 75.3788 48.3424C75.3885 48.3152 75.3968 48.2965 75.3892 48.3145C75.38 48.3364 75.358 48.3874 75.3067 48.5048C75.206 48.7357 75.0017 49.2023 74.5867 50.15C73.7571 52.0445 72.0874 55.8573 68.7271 63.5379L70.5594 64.3395ZM77.2379 49.0743C78.083 47.143 78.5117 45.0924 78.5117 42.9846H76.5117C76.5117 44.8166 76.14 46.5942 75.4056 48.2726L77.2379 49.0743ZM78.5117 42.9846V41.1933H76.5117V42.9846H78.5117ZM78.5117 41.1933C78.5117 39.437 78.2027 37.715 77.6252 36.0977L75.7417 36.7703C76.244 38.1771 76.5117 39.6719 76.5117 41.1933H78.5117ZM77.4483 37.0782L78.8939 35.3617L77.3641 34.0734L75.9185 35.7898L77.4483 37.0782ZM78.8937 35.3619C80.3542 33.6287 82.5939 32.8929 84.707 33.2986L85.0841 31.3345C82.2785 30.7959 79.3032 31.7722 77.3643 34.0732L78.8937 35.3619ZM84.7081 33.2989C87.5789 33.8466 89.6641 36.3679 89.6641 39.2924H91.6641C91.6641 35.4085 88.8974 32.0622 85.083 31.3343L84.7081 33.2989ZM89.6641 39.2924V44.6546H91.6641V39.2924H89.6641ZM89.6641 44.6546C89.6641 47.3692 88.5713 49.985 86.6842 51.8975L88.1079 53.3022C90.3593 51.0204 91.6641 47.902 91.6641 44.6546H89.6641ZM88.1492 51.9419C86.7223 50.3085 84.622 49.2695 82.2812 49.2695V51.2695C84.0174 51.2695 85.5775 52.0381 86.6429 53.2577L88.1492 51.9419ZM82.2812 49.2695C77.9833 49.2695 74.4883 52.7645 74.4883 57.0625H76.4883C76.4883 53.8691 79.0879 51.2695 82.2812 51.2695V49.2695ZM74.4883 57.0625C74.4883 61.3605 77.9833 64.8555 82.2812 64.8555V62.8555C79.0879 62.8555 76.4883 60.2559 76.4883 57.0625H74.4883ZM82.2812 64.8555C86.5825 64.8555 90.1659 61.3241 90.0701 56.8891L88.0705 56.9324C88.1418 60.2266 85.4806 62.8555 82.2812 62.8555V64.8555ZM89.6911 57.6947C93.6503 54.5594 96 49.7207 96 44.6545H94C94 49.1082 91.9308 53.3699 88.4495 56.1268L89.6911 57.6947ZM96 44.6545V39.2924H94V44.6545H96ZM96 39.2924C96 33.3303 91.7517 28.1929 85.8981 27.0754L85.523 29.0399C90.4332 29.9774 94 34.2897 94 39.2924H96ZM33.7188 55.6055C34.5213 55.6055 35.1758 56.2599 35.1758 57.0625H37.1758C37.1758 55.1554 35.6259 53.6055 33.7188 53.6055V55.6055ZM35.1758 57.0625C35.1758 57.8651 34.5213 58.5195 33.7188 58.5195V60.5195C35.6259 60.5195 37.1758 58.9696 37.1758 57.0625H35.1758ZM33.7188 58.5195C32.9162 58.5195 32.2617 57.8651 32.2617 57.0625H30.2617C30.2617 58.9696 31.8116 60.5195 33.7188 60.5195V58.5195ZM32.2617 57.0625C32.2617 56.2599 32.9162 55.6055 33.7188 55.6055V53.6055C31.8116 53.6055 30.2617 55.1554 30.2617 57.0625H32.2617ZM58.9162 58.1902L52.9904 44.6456L51.1581 45.4473L57.0838 58.9919L58.9162 58.1902ZM53.0742 45.0465V41.3044H51.0742V45.0465H53.0742ZM51.8866 42.2866C55.9257 43.0581 60.0743 43.0581 64.1134 42.2866L63.7382 40.3222C59.947 41.0463 56.053 41.0463 52.2618 40.3222L51.8866 42.2866ZM62.9258 41.3044V45.0466H64.9258V41.3044H62.9258ZM63.0096 44.6458L57.0838 58.1902L58.9162 58.9919L64.8419 45.4474L63.0096 44.6458ZM72.1758 42.9858C72.1773 44.2072 71.9246 45.4155 71.4337 46.5339L73.265 47.3377C73.8675 45.9652 74.1776 44.4823 74.1758 42.9833L72.1758 42.9858ZM71.4332 46.535L64.3477 62.7303L66.18 63.5319L73.2655 47.3366L71.4332 46.535ZM64.3477 62.7303C64.1615 63.1558 64.0712 63.617 64.0831 64.0812L66.0825 64.03C66.0781 63.8588 66.1114 63.6887 66.18 63.5319L64.3477 62.7303ZM64.0831 64.0812C64.095 64.5455 64.2089 65.0014 64.4165 65.4168L66.2054 64.5225C66.1288 64.3693 66.0869 64.2012 66.0825 64.03L64.0831 64.0812ZM64.4165 65.4169L66.4393 69.4624L68.2281 68.568L66.2054 64.5225L64.4165 65.4169ZM66.3405 68.8984L64.1529 87.4925L66.1392 87.7262L68.3268 69.1321L66.3405 68.8984ZM64.2691 87.1288L59.3076 96.1835L61.0616 97.1446L66.023 88.0899L64.2691 87.1288ZM60.1846 95.6641C60.7416 95.8336 61.1411 96.3726 61.1641 96.4629C61.1702 96.4954 61.1773 96.5447 61.1791 96.561C61.1817 96.5863 61.1826 96.6056 61.1827 96.6075C61.1832 96.6169 61.1832 96.6215 61.1831 96.6157C61.1829 96.6069 61.1826 96.589 61.1822 96.5595C61.1815 96.5019 61.1808 96.4141 61.1801 96.2966C61.1788 96.0623 61.1776 95.7176 61.1764 95.2775C61.1742 94.3976 61.1725 93.14 61.1711 91.6303C61.1683 88.6109 61.167 84.5849 61.1666 80.5587C61.1661 76.5325 61.1665 72.5063 61.1669 69.4866C61.1672 67.9767 61.1674 66.7186 61.1676 65.8378C61.1677 65.3974 61.1678 65.0514 61.1679 64.8155C61.1679 64.6976 61.1679 64.6072 61.1679 64.5462C61.168 64.5157 61.168 64.4926 61.168 64.4772C61.168 64.4694 61.168 64.4636 61.168 64.4597C61.168 64.4577 61.168 64.4563 61.168 64.4553C61.168 64.4548 61.168 64.4544 61.168 64.4542C61.168 64.454 61.168 64.4538 60.168 64.4535C59.168 64.4533 59.168 64.4534 59.168 64.4536C59.168 64.4539 59.168 64.4542 59.168 64.4547C59.168 64.4557 59.168 64.4572 59.168 64.4591C59.168 64.463 59.168 64.4689 59.168 64.4766C59.168 64.4921 59.168 64.5152 59.1679 64.5457C59.1679 64.6066 59.1679 64.6971 59.1679 64.815C59.1678 65.0509 59.1677 65.397 59.1676 65.8374C59.1674 66.7181 59.1672 67.9764 59.1669 69.4863C59.1665 72.5061 59.1661 76.5325 59.1666 80.5589C59.167 84.5853 59.1683 88.6119 59.1711 91.6321C59.1725 93.1421 59.1742 94.401 59.1765 95.2825C59.1776 95.7232 59.1788 96.0705 59.1802 96.3081C59.1808 96.4265 59.1816 96.5195 59.1823 96.5838C59.1827 96.6152 59.1832 96.6436 59.1837 96.6657C59.184 96.6754 59.1844 96.6917 59.1853 96.7088C59.1856 96.7146 59.1867 96.7369 59.1895 96.7642C59.1914 96.7814 59.1986 96.8315 59.2048 96.8644C59.2279 96.9553 59.6275 97.4946 60.1846 97.6641V95.6641ZM61.0841 64.8544L68.9961 46.7699L67.1637 45.9682L59.2518 64.0527L61.0841 64.8544ZM68.996 46.77C69.1713 46.3695 69.2618 45.9371 69.2617 45.4999L67.2617 45.5001C67.2617 45.6612 67.2284 45.8205 67.1638 45.9681L68.996 46.77ZM69.2617 45.5V38.5625H67.2617V45.5H69.2617ZM69.2617 38.5625C69.2617 36.4532 67.2394 34.9386 65.2226 35.5166L65.7736 37.4392C66.5154 37.2266 67.2617 37.7858 67.2617 38.5625H69.2617ZM65.2232 35.5165C60.5024 36.8666 55.4976 36.8666 50.7768 35.5165L50.2269 37.4394C55.3071 38.8923 60.6929 38.8923 65.7731 37.4394L65.2232 35.5165ZM50.7772 35.5166C48.7618 34.9394 46.7383 36.451 46.7383 38.5625H48.7383C48.7383 37.7854 49.4842 37.2267 50.2266 37.4393L50.7772 35.5166ZM46.7383 38.5625V45.5H48.7383V38.5625H46.7383ZM46.7383 45.5C46.7383 45.9371 46.8287 46.3695 47.004 46.7699L48.8362 45.9682C48.7716 45.8206 48.7383 45.6611 48.7383 45.5L46.7383 45.5ZM47.0039 46.7699L54.9159 64.8544L56.7482 64.0527L48.8363 45.9682L47.0039 46.7699ZM54.832 64.4535V96.6641H56.832V64.4535H54.832ZM56.7083 96.1823L51.7302 87.1276L49.9776 88.0911L54.9557 97.1458L56.7083 96.1823ZM51.8471 87.4925L49.6595 68.8984L47.6732 69.1321L49.8608 87.7262L51.8471 87.4925ZM49.5608 69.4624L51.5835 65.4169L49.7946 64.5225L47.7719 68.568L49.5608 69.4624ZM51.5835 65.4168C51.7912 65.0014 51.905 64.5455 51.9169 64.0812L49.9175 64.03C49.9131 64.2012 49.8712 64.3693 49.7946 64.5225L51.5835 65.4168ZM51.9169 64.0812C51.9288 63.617 51.8384 63.1558 51.6523 62.7303L49.82 63.5319C49.8886 63.6887 49.9219 63.8588 49.9175 64.03L51.9169 64.0812ZM51.6523 62.7303L44.5668 46.535L42.7345 47.3366L49.82 63.5319L51.6523 62.7303ZM44.5663 46.5339C44.0754 45.4155 43.8227 44.2072 43.8242 42.9858L41.8242 42.9833C41.8224 44.4823 42.1325 45.9652 42.735 47.3377L44.5663 46.5339ZM43.8242 42.9846V41.1933H41.8242V42.9846H43.8242ZM43.8242 41.1933C43.8242 36.3719 47.7304 32.3359 52.6815 32.3359V30.3359C46.6061 30.3359 41.8242 35.2872 41.8242 41.1933H43.8242ZM52.6815 32.3359H63.3185V30.3359H52.6815V32.3359ZM63.3185 32.3359C68.2713 32.3359 72.1758 36.3734 72.1758 41.1933H74.1758C74.1758 35.2892 69.396 30.3359 63.3185 30.3359V32.3359ZM72.1758 41.1933V42.9846H74.1758V41.1933H72.1758ZM82.2812 58.5195C81.4787 58.5195 80.8242 57.8651 80.8242 57.0625H78.8242C78.8242 58.9696 80.3741 60.5195 82.2812 60.5195V58.5195ZM80.8242 57.0625C80.8242 56.2599 81.4787 55.6055 82.2812 55.6055V53.6055C80.3741 53.6055 78.8242 55.1554 78.8242 57.0625H80.8242ZM82.2812 55.6055C83.0838 55.6055 83.7383 56.2599 83.7383 57.0625H85.7383C85.7383 55.1554 84.1884 53.6055 82.2812 53.6055V55.6055ZM83.7383 57.0625C83.7383 57.8651 83.0838 58.5195 82.2812 58.5195V60.5195C84.1884 60.5195 85.7383 58.9696 85.7383 57.0625H83.7383Z" fill="#0099A1" mask="url(#path-2-outside-1_26_577)"/>
<path d="M55.4019 54.5C56.5566 56.5 59.4434 56.5 60.5981 54.5L66.6603 44C67.815 42 66.3716 39.5 64.0622 39.5H51.9378C49.6284 39.5 48.185 42 49.3397 44L55.4019 54.5Z" fill="#0099A1"/>
</svg>
