<svg width="117" height="117" viewBox="0 0 117 117" fill="none" xmlns="http://www.w3.org/2000/svg">
<circle cx="58.5" cy="58.5" r="56" fill="white" stroke="#0099A1" stroke-width="5"/>
<path d="M89.75 31H27.25C23.8 31 21 33.8 21 37.25V74.75C21 78.2 23.8 81 27.25 81H89.75C93.2 81 96 78.2 96 74.75V37.25C96 33.8 93.2 31 89.75 31ZM42.5625 54.925C48.7625 54.925 53.8125 59.975 53.8125 66.175C53.8125 66.8625 53.2625 67.425 52.5625 67.425H32.5625C31.875 67.425 31.3125 66.8625 31.3125 66.175C31.3125 59.975 36.3625 54.925 42.5625 54.925ZM34.775 45.7125C34.775 41.425 38.275 37.9375 42.5625 37.9375C46.85 37.9375 50.35 41.425 50.35 45.7125C50.35 50 46.85 53.5 42.5625 53.5C38.275 53.5 34.775 50.0125 34.775 45.7125ZM49.9125 72.8125C49.9125 73.5 49.3625 74.0625 48.6625 74.0625H36.4625C35.775 74.0625 35.2125 73.5 35.2125 72.8125C35.2125 72.125 35.775 71.5625 36.4625 71.5625H48.6625C49.3625 71.5625 49.9125 72.125 49.9125 72.8125ZM62.0625 71.5625H84.4375C85.125 71.5625 85.6875 72.125 85.6875 72.8125C85.6875 73.5 85.125 74.0625 84.4375 74.0625H62.0625C61.375 74.0625 60.8125 73.5 60.8125 72.8125C60.8125 72.125 61.375 71.5625 62.0625 71.5625ZM60.8125 67.2125C60.8125 66.525 61.375 65.9625 62.0625 65.9625H84.4375C85.125 65.9625 85.6875 66.525 85.6875 67.2125C85.6875 67.9 85.125 68.4625 84.4375 68.4625H62.0625C61.375 68.4625 60.8125 67.9125 60.8125 67.2125ZM84.4375 62.875H62.0625C61.375 62.875 60.8125 62.3125 60.8125 61.625C60.8125 60.9375 61.375 60.375 62.0625 60.375H84.4375C85.125 60.375 85.6875 60.925 85.6875 61.625C85.6875 62.325 85.125 62.875 84.4375 62.875ZM64.05 47.1375C64.05 42.0625 68.175 37.9375 73.25 37.9375C78.325 37.9375 82.4625 42.0625 82.4625 47.1375C82.4625 52.2125 78.325 56.3375 73.25 56.3375C68.175 56.3375 64.05 52.2125 64.05 47.1375Z" fill="url(#paint0_linear_364_94)"/>
<path d="M79.9623 47.1375C79.9623 43.4375 76.9498 40.4375 73.2498 40.4375C69.5498 40.4375 66.5498 43.4375 66.5498 47.1375C66.5498 50.8375 69.5623 53.8375 73.2498 53.8375C76.9373 53.8375 79.9623 50.8375 79.9623 47.1375ZM71.9998 50V48.3875H70.3873C69.6998 48.3875 69.1373 47.825 69.1373 47.1375C69.1373 46.45 69.6998 45.8875 70.3873 45.8875H71.9998V44.275C71.9998 43.5875 72.5623 43.025 73.2498 43.025C73.9373 43.025 74.4998 43.5875 74.4998 44.275V45.8875H76.1248C76.8123 45.8875 77.3748 46.45 77.3748 47.1375C77.3748 47.825 76.8123 48.3875 76.1248 48.3875H74.4998V50C74.4998 50.7 73.9498 51.25 73.2498 51.25C72.5498 51.25 71.9998 50.7 71.9998 50Z" fill="url(#paint1_linear_364_94)"/>
<defs>
<linearGradient id="paint0_linear_364_94" x1="79.4375" y1="32.0156" x2="30.7656" y2="78.5" gradientUnits="userSpaceOnUse">
<stop stop-color="#0099A1"/>
<stop offset="1" stop-color="#0071A1"/>
</linearGradient>
<linearGradient id="paint1_linear_364_94" x1="77.0004" y1="40.7097" x2="65.1642" y2="48.2529" gradientUnits="userSpaceOnUse">
<stop stop-color="#0099A1"/>
<stop offset="1" stop-color="#0071A1"/>
</linearGradient>
</defs>
</svg>
