<svg width="117" height="117" viewBox="0 0 117 117" fill="none" xmlns="http://www.w3.org/2000/svg">
<circle cx="58.5" cy="58.5" r="56" fill="white" stroke="#0099A1" stroke-width="5"/>
<path fill-rule="evenodd" clip-rule="evenodd" d="M32.4118 25C29.4229 25 27 27.4229 27 30.4118C27 32.8263 28.5813 34.8715 30.7647 35.5683V60.2941V68.7647V83.3529C30.7647 88.5509 34.9785 92.7647 40.1765 92.7647C45.3744 92.7647 49.5882 88.5509 49.5882 83.3529V68.7647V60.2941V35.5683C51.7717 34.8715 53.3529 32.8263 53.3529 30.4118C53.3529 27.4229 50.93 25 47.9412 25H32.4118ZM45.3529 35.8235H35V42.8824H37.5882C38.7578 42.8824 39.7059 43.8305 39.7059 45C39.7059 46.1695 38.7578 47.1176 37.5882 47.1176H35V50.4118H37.5882C38.7578 50.4118 39.7059 51.3599 39.7059 52.5294C39.7059 53.699 38.7578 54.6471 37.5882 54.6471H35V60.2941H45.3529V35.8235ZM69.1176 25C66.1288 25 63.7059 27.4229 63.7059 30.4118C63.7059 32.8262 65.2871 34.8714 67.4704 35.5683V60.2941V68.7647V83.3529C67.4704 88.5509 71.6842 92.7647 76.8822 92.7647C82.0802 92.7647 86.2939 88.5509 86.2939 83.3529V68.7647V60.2941V35.5684C88.4775 34.8716 90.0588 32.8264 90.0588 30.4118C90.0588 27.4229 87.6359 25 84.6471 25H69.1176ZM82.0587 35.8235H71.7057V42.8824H74.2939C75.4635 42.8824 76.4116 43.8305 76.4116 45C76.4116 46.1695 75.4635 47.1176 74.2939 47.1176H71.7057V50.4118H74.2939C75.4635 50.4118 76.4116 51.3599 76.4116 52.5294C76.4116 53.699 75.4635 54.6471 74.2939 54.6471H71.7057V60.2941H82.0587V35.8235Z" fill="#0099A1"/>
</svg>
