<svg width="117" height="117" viewBox="0 0 117 117" fill="none" xmlns="http://www.w3.org/2000/svg">
<circle cx="58.5" cy="58.5" r="56" fill="white" stroke="#0099A1" stroke-width="5"/>
<path d="M89.4277 78.1802C87.7387 75.1314 85.305 72.5601 82.3537 70.7061L71.7935 64.0814C73.5586 61.6551 74.6016 58.6714 74.6016 55.4482V34.9609C74.6016 29.4685 70.1331 25 64.6406 25H51.3594C45.8669 25 41.3984 29.4685 41.3984 34.9609V55.4482C41.3984 58.6713 42.4414 61.6551 44.2064 64.0813L33.6462 70.7061C30.7012 72.5537 28.255 75.1382 26.5722 78.1802C24.8893 81.2223 24 84.668 24 88.1445V91.0078C24 92.108 24.892 93 25.9922 93H90.0078C91.108 93 92 92.108 92 91.0078V88.1445C92 84.668 91.1106 81.2225 89.4277 78.1802ZM47.2422 77.7266C48.3407 77.7266 49.2344 78.6203 49.2344 79.7188C49.2344 80.8172 48.3407 81.7109 47.2422 81.7109C46.1437 81.7109 45.25 80.8172 45.25 79.7188C45.25 78.6203 46.1437 77.7266 47.2422 77.7266ZM45.3828 51.2781H70.6172V55.4482C70.6172 61.3613 65.8066 66.1719 59.8935 66.1719H56.1064C50.1934 66.1719 45.3828 61.3613 45.3828 55.4482V51.2781ZM51.3594 28.9844H64.6406C67.9361 28.9844 70.6172 31.6655 70.6172 34.9609V47.2938H45.3828V34.9609C45.3828 31.6655 48.0639 28.9844 51.3594 28.9844ZM88.0156 89.0156H27.9844V88.1445C27.9844 82.3943 30.8924 77.137 35.7636 74.0811L45.3164 68.0884V74.0623C42.9632 74.8658 41.2656 77.097 41.2656 79.7188C41.2656 83.0142 43.9467 85.6953 47.2422 85.6953C50.5377 85.6953 53.2188 83.0142 53.2188 79.7188C53.2188 77.1463 51.585 74.9484 49.3008 74.1077V68.4837C51.3371 69.5512 53.6522 70.1562 56.1065 70.1562H59.8936C62.4086 70.1562 64.7778 69.5213 66.8502 68.4041L66.885 73.6094H64.5078C61.9447 73.6094 59.8594 75.6947 59.8594 78.2578V81.7109C59.8594 83.5418 61.3489 85.0312 63.1797 85.0312H65.1719C66.2721 85.0312 67.1641 84.1393 67.1641 83.0391C67.1641 81.9388 66.2721 81.0469 65.1719 81.0469H63.8438V78.2578C63.8438 77.8916 64.1416 77.5938 64.5078 77.5938H73.0078C73.374 77.5938 73.6719 77.8916 73.6719 78.2578V81.0469H72.3438C71.2435 81.0469 70.3516 81.9388 70.3516 83.0391C70.3516 84.1393 71.2435 85.0312 72.3438 85.0312H74.3359C76.1668 85.0312 77.6562 83.5418 77.6562 81.7109V78.2578C77.6562 75.6947 75.571 73.6094 73.0078 73.6094H70.8695L70.8331 68.1823L80.2364 74.0813C85.1076 77.137 88.0156 82.3944 88.0156 88.1445V89.0156Z" fill="#0099A1"/>
<path fill-rule="evenodd" clip-rule="evenodd" d="M43 49H72V36.35V34.7H71.7749C70.5664 30.3231 64.635 27 57.5 27C50.365 27 44.4336 30.3231 43.2251 34.7H43V36.35V49Z" fill="#0099A1"/>
<path d="M54.6797 40.1406H56.0078V41.4688C56.0078 42.569 56.8998 43.4609 58 43.4609C59.1002 43.4609 59.9922 42.569 59.9922 41.4688V40.1406H61.3203C62.4205 40.1406 63.3125 39.2487 63.3125 38.1484C63.3125 37.0482 62.4205 36.1562 61.3203 36.1562H59.9922V34.8281C59.9922 33.7279 59.1002 32.8359 58 32.8359C56.8998 32.8359 56.0078 33.7279 56.0078 34.8281V36.1562H54.6797C53.5795 36.1562 52.6875 37.0482 52.6875 38.1484C52.6875 39.2487 53.5795 40.1406 54.6797 40.1406Z" fill="white"/>
</svg>
