<svg width="117" height="117" viewBox="0 0 117 117" fill="none" xmlns="http://www.w3.org/2000/svg">
<circle cx="58.5" cy="58.5" r="56" fill="white" stroke="#0099A1" stroke-width="5"/>
<path d="M93.9667 71.6003L81.3972 59.0308L93.9667 46.4613C95.199 45.229 95.9384 43.5037 95.9384 41.5321C95.9384 39.5604 95.199 37.8351 93.9667 36.6028L81.3972 24.0333C80.1649 22.801 78.4396 22.0616 76.4679 22.0616C74.7427 22.0616 73.0175 22.801 71.5387 24.0333L58.9692 36.6028L46.3997 24.0333C43.6886 21.3222 39.2523 21.3222 36.5412 24.0333L23.9717 36.6028C22.7394 38.0816 22 39.8068 22 41.5321C22 43.2573 22.7394 45.229 23.9717 46.4613L36.5412 59.0308L23.9717 71.6003C22.7394 72.8326 22 74.5579 22 76.5296C22 78.5012 22.7394 80.2265 23.9717 81.4588L36.5412 94.0283C37.7735 95.2606 39.4987 96 41.4704 96C43.1957 96 44.9209 95.2606 46.3997 94.0283L58.9692 81.4588L71.5387 94.0283C72.771 95.2606 74.7427 96 76.4679 96C78.1932 96 79.9184 95.2606 81.3972 94.0283L93.9667 81.4588C96.6778 78.7477 96.6778 74.3114 93.9667 71.6003ZM90.5162 77.7619L77.9467 90.3314C77.2073 91.0708 75.975 91.0708 75.2356 90.3314L27.4221 43.0108C27.1757 42.5179 26.9292 42.025 26.9292 41.5321C26.9292 41.0391 27.1757 40.5462 27.4221 40.0533L39.9917 27.4838C40.7311 26.7444 41.9634 26.7444 42.7027 27.4838L90.2698 75.0508C91.2556 75.7902 91.2556 77.0225 90.5162 77.7619Z" fill="#0099A1"/>
<path d="M56.7533 43.9965C55.7674 43.0107 54.2887 43.0107 53.3028 43.9965L43.9373 53.362C42.9515 54.3479 42.9515 55.8267 43.9373 56.8125L60.9431 73.8183C61.436 74.3113 61.929 74.5577 62.6684 74.5577C63.4077 74.5577 63.9007 74.3113 64.3936 73.8183L73.7591 64.4528C74.252 63.9599 74.4985 63.467 74.4985 62.7276C74.4985 61.9882 74.252 61.4953 73.7591 61.0023L56.7533 43.9965Z" fill="#0099A1"/>
</svg>
