<svg width="117" height="117" viewBox="0 0 117 117" fill="none" xmlns="http://www.w3.org/2000/svg">
<circle cx="58.5" cy="58.5" r="56" fill="white" stroke="#0099A1" stroke-width="5"/>
<path d="M75.3035 65.7955L78.9684 62.1306C80.5922 60.5069 80.5922 57.8742 78.9686 56.2506L59.7497 37.0317C58.126 35.408 55.4932 35.408 53.8695 37.0317L50.2046 40.6966M75.3035 65.7955L50.2046 40.6966M75.3035 65.7955L71.9779 69.1212C68.7976 72.3015 64.0717 72.9917 60.221 71.1908L50.4292 80.9826C46.1734 85.2384 39.2734 85.2384 35.0176 80.9826C30.7617 76.7267 30.7617 69.8267 35.0176 65.5709L44.8093 55.7792C43.0084 51.9284 43.6985 47.2025 46.8789 44.0223L50.2046 40.6966" stroke="#0099A1" stroke-width="5" stroke-miterlimit="10" stroke-linecap="round" stroke-linejoin="round"/>
<path d="M75.3883 52.6703C75.5881 52.5041 75.7802 52.3289 75.964 52.1452C79.3084 48.8008 79.3084 43.3803 75.964 40.036C72.6197 36.6916 67.1992 36.6916 63.8548 40.036C63.6712 40.2198 63.4959 40.4119 63.3297 40.6117M73.8315 28.5199C80.5616 30.1405 85.8594 35.4384 87.4801 42.1685M73.8315 19C85.7318 20.8682 95.1318 30.2682 97 42.1685M76.1387 94.0384H33.9939C29.5538 94.0384 27.33 88.67 30.4698 85.5302L35.0171 80.9829M55.511 60.489L52.553 63.447M45.5474 70.4526L45.6252 70.5305" stroke="#0099A1" stroke-width="5" stroke-miterlimit="10" stroke-linecap="round" stroke-linejoin="round"/>
<path d="M50.3706 41L73.3821 64.3303L65.0116 72.5865L61.5519 69.0789L52.0299 78.4937C50.3626 81.7451 46.7223 84 42.5 84C36.701 84 32 79.7467 32 74.5C32 71.196 33.8642 68.2859 36.6929 66.5839L34.9451 64.8162L46.2868 53.6023L42 49.2562L50.3706 41Z" fill="#0099A1"/>
</svg>
