<svg width="94" height="94" viewBox="0 0 94 94" fill="none" xmlns="http://www.w3.org/2000/svg">
<circle cx="47" cy="47" r="47" fill="white"/>
<g clip-path="url(#clip0_13_221)">
<path fill-rule="evenodd" clip-rule="evenodd" d="M68.3029 38.3442C66.2326 37.801 61.3648 37.8076 54.2446 37.6188C54.5808 36.0653 54.6587 34.6641 54.6587 32.1764C54.6587 26.2338 50.3293 21 46.5 21C43.7953 21 41.566 23.2111 41.5312 25.9307C41.4948 29.2663 40.463 35.0268 34.9062 37.9484C34.4988 38.1637 33.3328 38.7384 33.1622 38.813L33.25 38.8875C32.3805 38.1372 31.1747 37.5625 29.9375 37.5625H24.9688C22.2293 37.5625 20 39.7918 20 42.5312V69.0312C20 71.7707 22.2293 74 24.9688 74H29.9375C31.9084 74 33.5581 72.8092 34.3564 71.1397C34.3763 71.1463 34.411 71.1562 34.4342 71.1595C34.5435 71.1893 34.6727 71.2208 34.8301 71.2622C34.8599 71.2705 34.8748 71.2738 34.9062 71.2821C35.8602 71.5189 37.697 71.9578 41.6223 72.8605C42.4637 73.0526 46.9091 74 51.5135 74H60.5682C63.3275 74 65.3167 72.9383 66.5009 70.8068C66.5174 70.7736 66.8984 70.03 67.2098 69.0246C67.4433 68.2677 67.5294 67.1961 67.2478 66.1096C69.0267 64.8873 69.5997 63.0389 69.9724 61.8365C70.5968 59.8639 70.4096 58.3816 69.9757 57.3199C70.9761 56.3758 71.829 54.9366 72.1884 52.7387C72.412 51.3773 72.1719 49.9761 71.5442 48.8101C72.4816 47.7567 72.9089 46.4317 72.9586 45.2061L72.9785 44.8599C72.9901 44.643 73 44.5088 73 44.0318C73 41.94 71.5508 39.2717 68.3029 38.3442ZM31.5938 69.0312C31.5938 69.9472 30.8534 70.6875 29.9375 70.6875H24.9688C24.0528 70.6875 23.3125 69.9472 23.3125 69.0312V42.5312C23.3125 41.6153 24.0528 40.875 24.9688 40.875H29.9375C30.8534 40.875 31.5938 41.6153 31.5938 42.5312V69.0312ZM69.6494 45.0736C69.6163 45.8918 69.2734 47.5 66.375 47.5C63.8906 47.5 63.0625 47.5 63.0625 47.5C62.6037 47.5 62.2344 47.871 62.2344 48.3281C62.2344 48.7852 62.6037 49.1562 63.0625 49.1562C63.0625 49.1562 63.7879 49.1562 66.2723 49.1562C68.7567 49.1562 69.083 51.2166 68.9223 52.2104C68.7169 53.4459 68.1372 55.7812 65.3398 55.7812C62.5457 55.7812 61.4062 55.7812 61.4062 55.7812C60.9475 55.7812 60.5781 56.1506 60.5781 56.6094C60.5781 57.0648 60.9475 57.4375 61.4062 57.4375C61.4062 57.4375 63.3739 57.4375 64.6674 57.4375C67.4632 57.4375 67.2164 59.5691 66.8156 60.8411C66.2872 62.5122 65.9642 64.0625 62.4414 64.0625C61.2506 64.0625 59.7401 64.0625 59.7401 64.0625C59.2813 64.0625 58.9119 64.4318 58.9119 64.8906C58.9119 65.3461 59.2813 65.7188 59.7401 65.7188C59.7401 65.7188 60.8878 65.7188 62.3371 65.7188C64.149 65.7188 64.2335 67.433 64.0447 68.0474C63.8376 68.7199 63.5925 69.2184 63.5826 69.2416C63.0824 70.1443 62.2758 70.6875 60.5682 70.6875H51.5135C46.9654 70.6875 42.4538 69.6557 42.3378 69.6292C35.4578 68.0441 35.0951 67.9216 34.6628 67.799C34.6628 67.799 33.2616 67.5622 33.2616 66.3398L33.25 43.4637C33.25 42.6869 33.7452 41.9847 34.5651 41.7379C34.6677 41.6982 34.8069 41.6551 34.9062 41.6137C42.472 38.4801 44.7758 31.6099 44.8438 25.9688C44.8537 25.1754 45.4648 24.3125 46.5 24.3125C48.2507 24.3125 51.3462 27.8271 51.3462 32.1764C51.3462 36.1033 51.1872 36.7824 49.8125 40.875C66.375 40.875 66.2591 41.1135 67.7199 41.4961C69.5318 42.0145 69.6875 43.5151 69.6875 44.0318C69.6875 44.5999 69.6709 44.5171 69.6494 45.0736Z" fill="#63C648"/>
<path fill-rule="evenodd" clip-rule="evenodd" d="M27.4531 64.0623C26.0818 64.0623 24.9688 65.1753 24.9688 66.5466C24.9688 67.918 26.0818 69.031 27.4531 69.031C28.8245 69.031 29.9375 67.918 29.9375 66.5466C29.9375 65.1753 28.8245 64.0623 27.4531 64.0623ZM27.4531 67.3748C26.9977 67.3748 26.625 67.0021 26.625 66.5466C26.625 66.0912 26.9977 65.7185 27.4531 65.7185C27.9086 65.7185 28.2812 66.0912 28.2812 66.5466C28.2812 67.0021 27.9086 67.3748 27.4531 67.3748Z" fill="#63C648"/>
</g>
<defs>
<clipPath id="clip0_13_221">
<rect width="53" height="53" fill="white" transform="translate(20 21)"/>
</clipPath>
</defs>
</svg>
