<svg width="42" height="31" viewBox="0 0 42 31" fill="none" xmlns="http://www.w3.org/2000/svg">
<path fill-rule="evenodd" clip-rule="evenodd" d="M9.51964 10.4474C9.00181 9.92958 8.38704 9.51881 7.71045 9.23857C7.03386 8.95833 6.3087 8.81409 5.57637 8.81411C4.84404 8.81412 4.11888 8.95839 3.4423 9.23866C2.76572 9.51893 2.15098 9.92972 1.63316 10.4476C-0.544441 12.6253 -0.544359 16.156 1.63324 18.3337L12.6497 29.3505C13.1675 29.8684 13.7822 30.2792 14.4588 30.5595C15.1354 30.8397 15.8605 30.984 16.5928 30.984C17.3252 30.984 18.0503 30.8398 18.7269 30.5596C19.4035 30.2793 20.0182 29.8685 20.536 29.3507L40.3667 9.52005C42.5443 7.34253 42.5444 3.81207 40.3672 1.63422L40.3666 1.63365C39.8488 1.11576 39.234 0.704932 38.5574 0.42463C37.8808 0.144328 37.1557 3.80943e-05 36.4233 7.54203e-09C35.691 -3.80792e-05 34.9658 0.144176 34.2891 0.424407C33.6125 0.704639 32.9977 1.1154 32.4799 1.63324L17.0563 17.0568C16.9333 17.1797 16.7665 17.2488 16.5926 17.2488C16.4187 17.2488 16.252 17.1797 16.129 17.0568L9.51964 10.4474Z" fill="#66BB79"/>
<path fill-rule="evenodd" clip-rule="evenodd" d="M35.5205 0.0734774C36.6726 0.262372 37.7363 0.808096 38.5617 1.63371L38.5623 1.63429C40.7396 3.81213 40.7394 7.34259 38.5618 9.52011L18.7312 29.3508C17.9058 30.1761 16.8423 30.7217 15.6904 30.9105C16.5639 31.0537 17.4589 30.987 18.3015 30.7157C19.144 30.4445 19.9099 29.9766 20.5359 29.3508L40.3665 9.52011C42.5441 7.34259 42.5443 3.81213 40.367 1.63429L40.3664 1.63371C39.7405 1.00769 38.9745 0.539666 38.1319 0.268357C37.2892 -0.00295227 36.3941 -0.0697534 35.5205 0.0734774Z" fill="#0099A1"/>
</svg>
