<svg width="113" height="113" viewBox="0 0 113 113" fill="none" xmlns="http://www.w3.org/2000/svg">
<circle cx="56.7002" cy="56.2383" r="55.9238" fill="white"/>
<path d="M57.3828 19.2607C59.7327 19.2607 61.6286 21.1828 61.5963 23.5325L61.0433 63.801C61.0117 66.1054 59.1346 67.957 56.8299 67.957H56.548C54.245 67.957 52.3686 66.1081 52.3346 63.8054L51.7391 23.5369C51.7043 21.1856 53.6008 19.2607 55.9525 19.2607H57.3828ZM51.3672 84.3146C51.3672 82.7714 51.8301 81.4683 52.756 80.4052C53.7162 79.3422 55.1222 78.8106 56.974 78.8106C58.7915 78.8106 60.1804 79.3422 61.1406 80.4052C62.1351 81.4683 62.6323 82.7714 62.6323 84.3146C62.6323 85.7892 62.1351 87.058 61.1406 88.1211C60.1804 89.1841 58.7915 89.7157 56.974 89.7157C55.1222 89.7157 53.7162 89.1841 52.756 88.1211C51.8301 87.058 51.3672 85.7892 51.3672 84.3146Z" fill="#FF5B62"/>
</svg>
